HIERARCHY
ROOT Hips
{
  OFFSET 53.2191 95.6354 31.114
  CHANNELS 6 Xposition Yposition Zposition Zrotation Xrotation Yrotation
  JOINT spine
  {
    OFFSET 0 7.96568 0.458067
    CHANNELS 3 Zrotation Xrotation Yrotation
    JOINT spine1
    {
      OFFSET 0 10.2431 0
      CHANNELS 3 Zrotation Xrotation Yrotation
      JOINT spine2
      {
        OFFSET 0 9.81475 0
        CHANNELS 3 Zrotation Xrotation Yrotation
        JOINT Neck
        {
          OFFSET 0 25.1986 1.20138
          CHANNELS 3 Zrotation Xrotation Yrotation
          JOINT Head
          {
            OFFSET 0 7.61315 0
            CHANNELS 3 Zrotation Xrotation Yrotation
            End Site
            {
              OFFSET 0 18.4281 -6.07733
            }
          }
        }
        JOINT RightShoulder
        {
          OFFSET -4.1327 10.5992 -0.575451
          CHANNELS 3 Zrotation Xrotation Yrotation
          JOINT RightArm
          {
            OFFSET 0 13.9018 0
            CHANNELS 3 Zrotation Xrotation Yrotation
            JOINT RightArmRoll
            {
              OFFSET 0 7.01788 0
              CHANNELS 3 Zrotation Xrotation Yrotation
              JOINT RightForeArm
              {
                OFFSET 0 20.4406 0
                CHANNELS 3 Zrotation Xrotation Yrotation
                JOINT RightForeArmRoll
                {
                  OFFSET 0 7.87515 0
                  CHANNELS 3 Zrotation Xrotation Yrotation
                  JOINT RightHand
                  {
                    OFFSET 0 15.8037 0
                    CHANNELS 3 Zrotation Xrotation Yrotation
                    End Site
                    {
                      OFFSET 0 0 0
                    }
                  }
                }
              }
            }
          }
        }
        JOINT LeftShoulder
        {
          OFFSET 4.1327 10.5992 -0.575451
          CHANNELS 3 Zrotation Xrotation Yrotation
          JOINT LeftArm
          {
            OFFSET 0 13.9018 0
            CHANNELS 3 Zrotation Xrotation Yrotation
            JOINT LeftArmRoll
            {
              OFFSET 0 7.01788 0
              CHANNELS 3 Zrotation Xrotation Yrotation
              JOINT LeftForeArm
              {
                OFFSET 0 20.4406 0
                CHANNELS 3 Zrotation Xrotation Yrotation
                JOINT LeftForeArmRoll
                {
                  OFFSET 0 7.87515 0
                  CHANNELS 3 Zrotation Xrotation Yrotation
                  JOINT LeftHand
                  {
                    OFFSET 0 15.8037 0
                    CHANNELS 3 Zrotation Xrotation Yrotation
                    End Site
                    {
                      OFFSET 0 0 0
                    }
                  }
                }
              }
            }
          }
        }
      }
    }
  }
  JOINT RightUpLeg
  {
    OFFSET -7.06048 -1.2947 -1.08609
    CHANNELS 3 Zrotation Xrotation Yrotation
    JOINT RightUpLegRoll
    {
      OFFSET 0 18.5308 0
      CHANNELS 3 Zrotation Xrotation Yrotation
      JOINT RightLeg
      {
        OFFSET 0 -22.9476 0
        CHANNELS 3 Zrotation Xrotation Yrotation
        JOINT RightLegRoll
        {
          OFFSET 0 23.0226 0
          CHANNELS 3 Zrotation Xrotation Yrotation
          JOINT RightFoot
          {
            OFFSET 0 19.1625 0
            CHANNELS 3 Zrotation Xrotation Yrotation
            JOINT RightToeBase
            {
              OFFSET 0 16.0188 0
              CHANNELS 3 Zrotation Xrotation Yrotation
              End Site
              {
                OFFSET 0.00678979 7.75782 -0.894207
              }
            }
          }
        }
      }
    }
  }
  JOINT LeftUpLeg
  {
    OFFSET 7.06048 -1.2947 -1.08609
    CHANNELS 3 Zrotation Xrotation Yrotation
    JOINT LeftUpLegRoll
    {
      OFFSET 0 18.5309 0
      CHANNELS 3 Zrotation Xrotation Yrotation
      JOINT LeftLeg
      {
        OFFSET 0 22.9475 0
        CHANNELS 3 Zrotation Xrotation Yrotation
        JOINT LeftLegRoll
        {
          OFFSET 0 23.2355 0
          CHANNELS 3 Zrotation Xrotation Yrotation
          JOINT LeftFoot
          {
            OFFSET 0 18.9496 0
            CHANNELS 3 Zrotation Xrotation Yrotation
            JOINT LeftToeBase
            {
              OFFSET 0 16.0188 0
              CHANNELS 3 Zrotation Xrotation Yrotation
              End Site
              {
                OFFSET -0.0304289 7.75782 -0.894206
              }
            }
          }
        }
      }
    }
  }
}
MOTION
Frames: 13
Frame Time: 0.00208333
53.1311 82.6251 8.39149 -1.15988 24.832 7.16858 -0.245226 0.813074 -0.217145 -0.487204 5.62978 -0.390446 -0.483461 7.27482 -0.382798 -0.893625 0.742763 -2.35899 3.77732 4.88086 -2.32033 63.8685 -2.32564 -1.92136 119.7 40.7685 -13.8525 7.62925e-007 -1.44737e-006 -1.51233e-006 14.2929 14.1617 -2.4946 -6.52574e-006 -5.85831e-006 -3 8.02885 -4.95105 0.697513 -64.4876 -3.7253 2.75345 -125.598 39.2082 14.9436 9.54477e-015 5.96354e-016 -3.97569e-016 -10.4058 19.2224 2.1222 7.18665e-007 4.19146e-007 3.00632 -8.02886 -4.95143 -0.697709 155.356 66.8188 18.6517 180 1.52581e-005 179.445 177.255 54.6774 179.105 1.77578e-007 -3.04992e-006 0.619359 -20.9795 74.1698 25.8345 8.13658 25.234 -3.48093 -173.778 67.9451 -2.92126 4.54188e-006 -4.6773e-006 -0.708426 -3.33117 -53.9952 -0.231555 -6.14466e-006 -5.41587e-006 -0.835569 22.4528 73.9554 -25.8535 -8.13654 25.2333 3.48684 
53.1375 82.7552 8.5253 -1.1614 24.6527 7.14758 -0.243128 0.796714 -0.216774 -0.483103 5.59706 -0.389663 -0.479357 7.24209 -0.382081 -0.888019 0.699489 -2.34367 3.78804 4.95657 -2.30549 63.8614 -2.32798 -1.92201 119.911 40.8861 -13.6781 7.62925e-007 -1.44737e-006 -1.51233e-006 14.055 13.4225 -2.34265 -6.52574e-006 -5.85831e-006 -3 8.02885 -4.95105 0.697513 -64.3634 -3.79677 2.78208 -125.922 39.1971 14.819 -1.85118e-015 -1.98785e-016 -5.96354e-016 -10.1397 18.6474 1.99764 7.18665e-007 4.19146e-007 3.00632 -8.02886 -4.95143 -0.697709 155.766 66.4057 18.2669 180 1.52581e-005 179.442 177.15 54.4009 179.172 1.77578e-007 -3.04992e-006 0.616467 -21.0381 74.1587 25.8328 8.13658 25.234 -3.48102 -173.785 67.5077 -2.8897 4.54188e-006 -4.6773e-006 -0.709911 -3.33635 -53.7404 -0.237156 -6.14466e-006 -5.41587e-006 -0.832855 22.4894 73.9582 -25.8636 -8.13654 25.2333 3.48684 
53.1548 82.9286 8.62237 -1.16257 24.4759 7.12863 -0.240691 0.779798 -0.216191 -0.478309 5.56322 -0.388648 -0.474561 7.20825 -0.381143 -0.883973 0.661036 -2.33071 3.79775 5.03053 -2.29336 63.852 -2.33082 -1.92273 120.115 40.9968 -13.5017 7.62925e-007 -1.44737e-006 -1.51233e-006 13.8225 12.6977 -2.19827 -6.52574e-006 -5.85831e-006 -3 8.02885 -4.95105 0.697513 -64.268 -3.85165 2.80401 -126.201 39.1892 14.6759 5.85172e-015 0 -1.98785e-016 -9.88575 18.0805 1.87868 7.18664e-007 4.19146e-007 3.00632 -8.02886 -4.95143 -0.697709 156.156 65.9938 17.8998 180 1.52581e-005 179.438 177.049 54.1262 179.236 1.77578e-007 -3.04992e-006 0.613623 -21.0967 74.1491 25.8326 8.13658 25.234 -3.4811 -173.799 67.0739 -2.85192 4.54188e-006 -4.6773e-006 -0.711428 -3.34051 -53.4861 -0.242234 -6.14466e-006 -5.41588e-006 -0.830171 22.5262 73.9607 -25.8734 -8.13654 25.2333 3.48684 
53.1601 83.0606 8.76188 -1.16328 24.302 7.11203 -0.237884 0.762273 -0.215383 -0.472754 5.52816 -0.387402 -0.469006 7.17319 -0.379987 -0.881566 0.628444 -2.32038 3.80613 5.10185 -2.28423 63.8403 -2.33423 -1.92356 120.31 41.0999 -13.3228 7.62925e-007 -1.44737e-006 -1.51233e-006 13.5965 11.9882 -2.06198 -6.52574e-006 -5.85831e-006 -3 8.02885 -4.95105 0.697513 -64.2064 -3.88717 2.81812 -126.427 39.1855 14.5109 1.24613e-014 7.95139e-016 -0 -9.64563 17.5214 1.76545 7.18665e-007 4.19146e-007 3.00632 -8.02886 -4.95143 -0.697709 156.526 65.5834 17.5494 180 1.5258e-005 179.435 176.953 53.8539 179.297 1.77578e-007 -3.04992e-006 0.610839 -21.1555 74.1412 25.8344 8.13658 25.234 -3.48119 -173.82 66.644 -2.80732 4.54188e-006 -4.6773e-006 -0.71298 -3.34366 -53.2325 -0.246796 -6.14466e-006 -5.41588e-006 -0.827516 22.5635 73.963 -25.883 -8.13654 25.2333 3.48684 
53.166 83.1786 8.90297 -1.16365 24.131 7.09748 -0.234605 0.74413 -0.214235 -0.466239 5.49186 -0.38573 -0.462494 7.13689 -0.378421 -0.882085 0.597766 -2.31326 3.81463 5.17422 -2.27892 63.8241 -2.33975 -1.92516 120.504 41.1966 -13.1441 7.62925e-007 -1.44737e-006 -1.51233e-006 13.3697 11.284 -1.93126 -6.52574e-006 -5.85831e-006 -2.99992 8.02885 -4.95105 0.697513 -64.1762 -3.90475 2.82495 -126.604 39.185 14.3264 7.92654e-015 0 -3.97569e-016 -9.41498 16.9703 1.65789 7.18665e-007 4.19146e-007 3.00632 -8.02886 -4.95143 -0.697709 156.876 65.1742 17.2177 180 1.5258e-005 179.432 176.858 53.5829 179.356 1.77578e-007 -3.04992e-006 0.608087 -21.2145 74.1343 25.8374 8.13658 25.234 -3.48127 -173.848 66.2179 -2.75638 4.54188e-006 -4.6773e-006 -0.714555 -3.34566 -52.9789 -0.250759 -6.14466e-006 -5.41587e-006 -0.8249 22.601 73.9649 -25.8922 -8.13654 25.2333 3.48684 
53.1713 83.3194 9.02327 -1.1639 23.9627 7.08443 -0.230815 0.725426 -0.212678 -0.458696 5.45444 -0.38349 -0.454958 7.09947 -0.376302 -0.886389 0.564903 -2.30948 3.82466 5.25136 -2.27774 63.8018 -2.34842 -1.92799 120.701 41.288 -12.9678 7.62925e-007 -1.44737e-006 -1.51233e-006 13.1355 10.5764 -1.80349 -6.52574e-006 -5.85831e-006 -2.99971 8.02885 -4.95105 0.697513 -64.1702 -3.90863 2.82621 -126.746 39.1853 14.1285 -8.69683e-016 -3.97569e-016 -7.95139e-016 -9.18828 16.4274 1.55566 7.18665e-007 4.19146e-007 3.00632 -8.02886 -4.95143 -0.697709 157.206 64.7654 16.9054 180 1.5258e-005 179.429 176.763 53.3117 179.414 1.77578e-007 -3.04992e-006 0.605333 -21.2733 74.1273 25.8402 8.13658 25.234 -3.48136 -173.882 65.7948 -2.7005 4.54188e-006 -4.6773e-006 -0.716134 -3.34646 -52.7247 -0.254063 -6.14466e-006 -5.41588e-006 -0.822331 22.6382 73.9661 -25.9004 -8.13654 25.2333 3.48684 
53.1903 83.4676 9.12023 -1.164 23.7968 7.07276 -0.226577 0.706204 -0.210765 -0.450252 5.41598 -0.380758 -0.446526 7.06101 -0.373706 -0.893922 0.53067 -2.30862 3.83591 5.33245 -2.28015 63.7745 -2.35957 -1.93174 120.901 41.3741 -12.7933 7.62925e-007 -1.44737e-006 -1.51233e-006 12.8954 9.86893 -1.67902 -6.52574e-006 -5.85831e-006 -2.9994 8.02885 -4.95105 0.697513 -64.1858 -3.90026 2.82248 -126.855 39.1859 13.9185 1.94809e-014 2.38542e-015 -0 -8.96555 15.893 1.45849 7.18665e-007 4.19146e-007 3.00632 -8.02886 -4.95143 -0.697709 157.518 64.3572 16.6105 180 1.5258e-005 179.426 176.668 53.0405 179.472 1.77578e-007 -3.04992e-006 0.60258 -21.332 74.1202 25.8428 8.13658 25.234 -3.48144 -173.919 65.3745 -2.64047 4.54188e-006 -4.6773e-006 -0.717719 -3.34614 -52.4701 -0.256759 -6.14466e-006 -5.41587e-006 -0.819809 22.6751 73.9667 -25.9079 -8.13654 25.2333 3.48684 
53.1935 83.5977 9.25151 -1.16396 23.6332 7.06233 -0.221954 0.686508 -0.208551 -0.441035 5.37656 -0.377609 -0.437324 7.0216 -0.370705 -0.904125 0.495884 -2.31025 3.84804 5.41665 -2.28562 63.7431 -2.37254 -1.93612 121.102 41.4548 -12.6199 7.62925e-007 -1.44737e-006 -1.51233e-006 12.6508 9.16496 -1.55818 -6.52574e-006 -5.85831e-006 -2.99902 8.02885 -4.95105 0.697513 -64.2203 -3.8811 2.81435 -126.935 39.1864 13.6979 -2.48481e-016 -7.95139e-016 -0 -8.74684 15.3671 1.36607 7.18665e-007 4.19146e-007 3.00632 -8.02886 -4.95143 -0.697709 157.815 63.9496 16.3311 180 1.5258e-005 179.424 176.574 52.7691 179.528 1.77578e-007 -3.04992e-006 0.59983 -21.3905 74.113 25.8452 8.13658 25.234 -3.48153 -173.959 64.9568 -2.57704 4.54188e-006 -4.6773e-006 -0.719312 -3.34481 -52.2149 -0.258893 -6.14466e-006 -5.41587e-006 -0.817331 22.7117 73.9666 -25.9146 -8.13654 25.2333 3.48684 
53.1973 83.7099 9.38628 -1.16378 23.4715 7.05304 -0.217008 0.666381 -0.206092 -0.431172 5.33629 -0.374121 -0.42748 6.98133 -0.367376 -0.91644 0.461361 -2.31394 3.86073 5.50315 -2.29361 63.7083 -2.38664 -1.94085 121.302 41.53 -12.447 7.62925e-007 -1.44737e-006 -1.51233e-006 12.4033 8.46789 -1.44131 -6.52574e-006 -5.85831e-006 -2.9986 8.02885 -4.95105 0.697513 -64.2713 -3.85261 2.80244 -126.989 39.1862 13.4682 3.18055e-014 1.59028e-015 1.19271e-015 -8.53219 14.8498 1.27816 7.18665e-007 4.19146e-007 3.00632 -8.02886 -4.95143 -0.697709 158.097 63.5426 16.0652 180 1.5258e-005 179.421 176.48 52.4977 179.584 1.77578e-007 -3.04992e-006 0.597087 -21.4486 74.1056 25.8474 8.13658 25.234 -3.48162 -174.003 64.5412 -2.5109 4.54188e-006 -4.6773e-006 -0.720915 -3.34254 -51.9592 -0.260513 -6.14466e-006 -5.41587e-006 -0.814896 22.748 73.966 -25.9205 -8.13654 25.2333 3.48684 
53.2085 83.8504 9.50971 -1.16344 23.3115 7.04477 -0.211803 0.645867 -0.203442 -0.420791 5.29524 -0.370371 -0.41712 6.94028 -0.363793 -0.930305 0.427918 -2.31927 3.87366 5.59112 -2.3036 63.6713 -2.40122 -1.94563 121.499 41.5996 -12.2738 7.62925e-007 -1.44737e-006 -1.51233e-006 12.1541 7.78112 -1.32872 -6.52574e-006 -5.85831e-006 -2.99817 8.02885 -4.95105 0.697513 -64.336 -3.81625 2.78733 -127.02 39.1848 13.2308 1.87852e-014 7.95139e-016 1.19271e-015 -8.32168 14.3414 1.19447 7.18665e-007 4.19146e-007 3.00632 -8.02886 -4.95143 -0.697709 158.367 63.1362 15.8113 180 1.5258e-005 179.418 176.388 52.2261 179.639 1.77578e-007 -3.04992e-006 0.594352 -21.5062 74.0981 25.8493 8.13658 25.234 -3.4817 -174.048 64.1277 -2.4427 4.54188e-006 -4.6773e-006 -0.72253 -3.33941 -51.7032 -0.261663 -6.14466e-006 -5.41587e-006 -0.8125 22.7839 73.9648 -25.9257 -8.13654 25.2333 3.48684 
53.2186 84.013 9.64544 -1.16294 23.153 7.03739 -0.206403 0.62501 -0.200656 -0.410021 5.2535 -0.366434 -0.406372 6.89854 -0.360029 -0.945159 0.396371 -2.32582 3.8865 5.67972 -2.31504 63.6328 -2.41559 -1.95017 121.692 41.6636 -12.0998 7.62925e-007 -1.44737e-006 -1.51233e-006 11.9047 7.10808 -1.22073 -6.52574e-006 -5.85831e-006 -2.99776 8.02885 -4.95105 0.697513 -64.4119 -3.77349 2.76962 -127.032 39.1818 12.9873 -7.20594e-015 7.95139e-016 -0 -8.11537 13.8418 1.11476 7.18665e-007 4.19146e-007 3.00632 -8.02886 -4.95143 -0.697709 158.625 62.7304 15.5677 180 1.5258e-005 179.416 176.297 51.9545 179.692 1.77578e-007 -3.04992e-006 0.59163 -21.5634 74.0905 25.851 8.13658 25.234 -3.48179 -174.095 63.7159 -2.37304 4.54188e-006 -4.6773e-006 -0.724158 -3.33553 -51.4467 -0.262388 -6.14466e-006 -5.41587e-006 -0.810143 22.8194 73.9631 -25.9301 -8.13654 25.2333 3.48684 
53.2275 84.1322 9.76858 -1.1623 22.9957 7.03078 -0.20087 0.603853 -0.19779 -0.39899 5.21116 -0.362387 -0.395364 6.8562 -0.35616 -0.960438 0.367535 -2.33315 3.8989 5.76814 -2.3274 63.5939 -2.42909 -1.95417 121.879 41.7218 -11.9242 7.62925e-007 -1.44737e-006 -1.51233e-006 11.6564 6.45215 -1.11765 -6.52574e-006 -5.85831e-006 -2.9974 8.02885 -4.95105 0.697513 -64.4963 -3.72577 2.74992 -127.028 39.1767 12.7392 6.4605e-015 -7.95139e-016 7.95139e-016 -7.91337 13.3514 1.03877 7.18664e-007 4.19146e-007 3.00632 -8.02886 -4.95143 -0.697709 158.875 62.3251 15.333 180 1.5258e-005 179.414 176.208 51.6829 179.744 1.77578e-007 -3.04992e-006 0.588921 -21.62 74.0829 25.8524 8.13658 25.234 -3.48188 -174.143 63.3056 -2.30253 4.54188e-006 -4.6773e-006 -0.725802 -3.33096 -51.19 -0.262733 -6.14466e-006 -5.41588e-006 -0.807823 22.8544 73.9608 -25.9339 -8.13654 25.2333 3.48684 
53.2467 84.2545 9.89303 -1.16151 22.8395 7.02484 -0.195268 0.58244 -0.194897 -0.387826 5.16831 -0.358307 -0.384224 6.81335 -0.35226 -0.975578 0.342226 -2.34085 3.91053 5.85554 -2.34015 63.5553 -2.44104 -1.95735 122.058 41.7742 -11.7464 7.62925e-007 -1.44737e-006 -1.51233e-006 11.4104 5.81675 -1.01982 -6.52574e-006 -5.85831e-006 -2.99712 8.02885 -4.95105 0.697513 -64.5868 -3.67456 2.72881 -127.011 39.1689 12.4879 3.85642e-014 1.59028e-015 1.59028e-015 -7.71576 12.8702 0.966259 7.18665e-007 4.19146e-007 3.00632 -8.02886 -4.95143 -0.697709 159.116 61.9203 15.1056 180 1.5258e-005 179.411 176.12 51.4112 179.794 1.77578e-007 -3.04992e-006 0.58623 -21.676 74.0751 25.8536 8.13658 25.234 -3.48196 -174.191 62.8966 -2.23169 4.54188e-006 -4.6773e-006 -0.727463 -3.32579 -50.9329 -0.262739 -6.14466e-006 -5.41587e-006 -0.805538 22.889 73.9581 -25.937 -8.13654 25.2333 3.48684 
